<mxfile host="app.diagrams.net" agent="Mozilla/5.0 (Windows NT 10.0; Win64; x64) AppleWebKit/537.36 (KHTML, like Gecko) Chrome/137.0.0.0 Safari/537.36" version="25.0.0">
  <diagram name="Página-1" id="FI43efTRTMUIuCeVRbxl">
    <mxGraphModel dx="1434" dy="738" grid="1" gridSize="10" guides="1" tooltips="1" connect="1" arrows="1" fold="1" page="1" pageScale="1" pageWidth="1390" pageHeight="980" math="0" shadow="0">
      <root>
        <mxCell id="0" />
        <mxCell id="1" parent="0" />
        <mxCell id="p_9eIz9eimf5ymayIWge-4" style="rounded=0;orthogonalLoop=1;jettySize=auto;html=1;edgeStyle=orthogonalEdgeStyle;" edge="1" parent="1" source="p_9eIz9eimf5ymayIWge-1">
          <mxGeometry relative="1" as="geometry">
            <mxPoint x="465" y="320" as="targetPoint" />
          </mxGeometry>
        </mxCell>
        <mxCell id="p_9eIz9eimf5ymayIWge-5" style="edgeStyle=orthogonalEdgeStyle;rounded=0;orthogonalLoop=1;jettySize=auto;html=1;exitX=0;exitY=1;exitDx=0;exitDy=0;" edge="1" parent="1" source="p_9eIz9eimf5ymayIWge-1">
          <mxGeometry relative="1" as="geometry">
            <mxPoint x="290" y="320" as="targetPoint" />
          </mxGeometry>
        </mxCell>
        <mxCell id="p_9eIz9eimf5ymayIWge-6" style="edgeStyle=orthogonalEdgeStyle;rounded=0;orthogonalLoop=1;jettySize=auto;html=1;exitX=1;exitY=1;exitDx=0;exitDy=0;" edge="1" parent="1" source="p_9eIz9eimf5ymayIWge-1">
          <mxGeometry relative="1" as="geometry">
            <mxPoint x="640" y="320" as="targetPoint" />
          </mxGeometry>
        </mxCell>
        <mxCell id="p_9eIz9eimf5ymayIWge-52" style="edgeStyle=orthogonalEdgeStyle;rounded=0;orthogonalLoop=1;jettySize=auto;html=1;exitX=0;exitY=0.5;exitDx=0;exitDy=0;entryX=0.5;entryY=0;entryDx=0;entryDy=0;" edge="1" parent="1" source="p_9eIz9eimf5ymayIWge-1" target="p_9eIz9eimf5ymayIWge-20">
          <mxGeometry relative="1" as="geometry" />
        </mxCell>
        <mxCell id="p_9eIz9eimf5ymayIWge-53" style="edgeStyle=orthogonalEdgeStyle;rounded=0;orthogonalLoop=1;jettySize=auto;html=1;exitX=1;exitY=0.5;exitDx=0;exitDy=0;entryX=0.5;entryY=0;entryDx=0;entryDy=0;" edge="1" parent="1" source="p_9eIz9eimf5ymayIWge-1" target="p_9eIz9eimf5ymayIWge-19">
          <mxGeometry relative="1" as="geometry" />
        </mxCell>
        <mxCell id="p_9eIz9eimf5ymayIWge-1" value="&lt;div&gt;PLANO DE NEGÓCIOS NA PERSPECTIVA DO&amp;nbsp;&lt;span style=&quot;background-color: initial;&quot;&gt;INVESTIDOR&lt;/span&gt;&lt;/div&gt;" style="rounded=0;whiteSpace=wrap;html=1;" vertex="1" parent="1">
          <mxGeometry x="290" y="130" width="350" height="70" as="geometry" />
        </mxCell>
        <mxCell id="p_9eIz9eimf5ymayIWge-47" style="edgeStyle=orthogonalEdgeStyle;rounded=0;orthogonalLoop=1;jettySize=auto;html=1;exitX=0;exitY=1;exitDx=0;exitDy=0;entryX=0;entryY=0.5;entryDx=0;entryDy=0;" edge="1" parent="1" source="p_9eIz9eimf5ymayIWge-7" target="p_9eIz9eimf5ymayIWge-34">
          <mxGeometry relative="1" as="geometry" />
        </mxCell>
        <mxCell id="p_9eIz9eimf5ymayIWge-49" style="edgeStyle=orthogonalEdgeStyle;rounded=0;orthogonalLoop=1;jettySize=auto;html=1;exitX=0;exitY=1;exitDx=0;exitDy=0;entryX=0;entryY=0.5;entryDx=0;entryDy=0;" edge="1" parent="1" source="p_9eIz9eimf5ymayIWge-7" target="p_9eIz9eimf5ymayIWge-32">
          <mxGeometry relative="1" as="geometry" />
        </mxCell>
        <mxCell id="p_9eIz9eimf5ymayIWge-50" style="edgeStyle=orthogonalEdgeStyle;rounded=0;orthogonalLoop=1;jettySize=auto;html=1;exitX=0;exitY=1;exitDx=0;exitDy=0;entryX=0;entryY=0.5;entryDx=0;entryDy=0;" edge="1" parent="1" source="p_9eIz9eimf5ymayIWge-7" target="p_9eIz9eimf5ymayIWge-33">
          <mxGeometry relative="1" as="geometry" />
        </mxCell>
        <mxCell id="p_9eIz9eimf5ymayIWge-55" style="edgeStyle=orthogonalEdgeStyle;rounded=0;orthogonalLoop=1;jettySize=auto;html=1;exitX=0;exitY=1;exitDx=0;exitDy=0;entryX=0;entryY=0.5;entryDx=0;entryDy=0;" edge="1" parent="1" source="p_9eIz9eimf5ymayIWge-7" target="p_9eIz9eimf5ymayIWge-54">
          <mxGeometry relative="1" as="geometry" />
        </mxCell>
        <mxCell id="p_9eIz9eimf5ymayIWge-7" value="ANÁLISE FINANCEIRA" style="rounded=0;whiteSpace=wrap;html=1;" vertex="1" parent="1">
          <mxGeometry x="410" y="320" width="120" height="60" as="geometry" />
        </mxCell>
        <mxCell id="p_9eIz9eimf5ymayIWge-44" style="edgeStyle=orthogonalEdgeStyle;rounded=0;orthogonalLoop=1;jettySize=auto;html=1;exitX=0;exitY=1;exitDx=0;exitDy=0;entryX=0;entryY=0.5;entryDx=0;entryDy=0;" edge="1" parent="1" source="p_9eIz9eimf5ymayIWge-8" target="p_9eIz9eimf5ymayIWge-37">
          <mxGeometry relative="1" as="geometry" />
        </mxCell>
        <mxCell id="p_9eIz9eimf5ymayIWge-45" style="edgeStyle=orthogonalEdgeStyle;rounded=0;orthogonalLoop=1;jettySize=auto;html=1;exitX=0;exitY=1;exitDx=0;exitDy=0;entryX=0;entryY=0.5;entryDx=0;entryDy=0;" edge="1" parent="1" source="p_9eIz9eimf5ymayIWge-8" target="p_9eIz9eimf5ymayIWge-35">
          <mxGeometry relative="1" as="geometry" />
        </mxCell>
        <mxCell id="p_9eIz9eimf5ymayIWge-46" style="edgeStyle=orthogonalEdgeStyle;rounded=0;orthogonalLoop=1;jettySize=auto;html=1;exitX=0;exitY=1;exitDx=0;exitDy=0;entryX=0;entryY=0.5;entryDx=0;entryDy=0;" edge="1" parent="1" source="p_9eIz9eimf5ymayIWge-8" target="p_9eIz9eimf5ymayIWge-36">
          <mxGeometry relative="1" as="geometry" />
        </mxCell>
        <mxCell id="p_9eIz9eimf5ymayIWge-8" value="INDICADORES DE RETORNO" style="rounded=0;whiteSpace=wrap;html=1;" vertex="1" parent="1">
          <mxGeometry x="580" y="320" width="120" height="60" as="geometry" />
        </mxCell>
        <mxCell id="p_9eIz9eimf5ymayIWge-21" style="edgeStyle=orthogonalEdgeStyle;rounded=0;orthogonalLoop=1;jettySize=auto;html=1;exitX=0;exitY=1;exitDx=0;exitDy=0;entryX=0;entryY=0.5;entryDx=0;entryDy=0;" edge="1" parent="1" source="p_9eIz9eimf5ymayIWge-10" target="p_9eIz9eimf5ymayIWge-18">
          <mxGeometry relative="1" as="geometry">
            <Array as="points">
              <mxPoint x="240" y="590" />
            </Array>
          </mxGeometry>
        </mxCell>
        <mxCell id="p_9eIz9eimf5ymayIWge-24" style="edgeStyle=orthogonalEdgeStyle;rounded=0;orthogonalLoop=1;jettySize=auto;html=1;exitX=0;exitY=1;exitDx=0;exitDy=0;entryX=0;entryY=0.5;entryDx=0;entryDy=0;" edge="1" parent="1" source="p_9eIz9eimf5ymayIWge-10" target="p_9eIz9eimf5ymayIWge-17">
          <mxGeometry relative="1" as="geometry" />
        </mxCell>
        <mxCell id="p_9eIz9eimf5ymayIWge-25" style="edgeStyle=orthogonalEdgeStyle;rounded=0;orthogonalLoop=1;jettySize=auto;html=1;exitX=0;exitY=1;exitDx=0;exitDy=0;entryX=0;entryY=0.5;entryDx=0;entryDy=0;" edge="1" parent="1" source="p_9eIz9eimf5ymayIWge-10" target="p_9eIz9eimf5ymayIWge-14">
          <mxGeometry relative="1" as="geometry" />
        </mxCell>
        <mxCell id="p_9eIz9eimf5ymayIWge-10" value="ATRATIVIDADE DO INVESTIMENTO" style="rounded=0;whiteSpace=wrap;html=1;" vertex="1" parent="1">
          <mxGeometry x="240" y="320" width="120" height="60" as="geometry" />
        </mxCell>
        <mxCell id="p_9eIz9eimf5ymayIWge-14" value="&lt;div&gt;Proposta de Valor Clara&lt;/div&gt;" style="rounded=1;whiteSpace=wrap;html=1;" vertex="1" parent="1">
          <mxGeometry x="260" y="400" width="120" height="60" as="geometry" />
        </mxCell>
        <mxCell id="p_9eIz9eimf5ymayIWge-17" value="Diferenciais Competitivos" style="rounded=1;whiteSpace=wrap;html=1;" vertex="1" parent="1">
          <mxGeometry x="260" y="480" width="120" height="60" as="geometry" />
        </mxCell>
        <mxCell id="p_9eIz9eimf5ymayIWge-18" value="Potencial de Escalabilidade" style="rounded=1;whiteSpace=wrap;html=1;" vertex="1" parent="1">
          <mxGeometry x="260" y="560" width="120" height="60" as="geometry" />
        </mxCell>
        <mxCell id="p_9eIz9eimf5ymayIWge-41" style="edgeStyle=orthogonalEdgeStyle;rounded=0;orthogonalLoop=1;jettySize=auto;html=1;exitX=0;exitY=1;exitDx=0;exitDy=0;entryX=0;entryY=0.5;entryDx=0;entryDy=0;" edge="1" parent="1" source="p_9eIz9eimf5ymayIWge-19" target="p_9eIz9eimf5ymayIWge-40">
          <mxGeometry relative="1" as="geometry" />
        </mxCell>
        <mxCell id="p_9eIz9eimf5ymayIWge-42" style="edgeStyle=orthogonalEdgeStyle;rounded=0;orthogonalLoop=1;jettySize=auto;html=1;exitX=0;exitY=1;exitDx=0;exitDy=0;entryX=0;entryY=0.5;entryDx=0;entryDy=0;" edge="1" parent="1" source="p_9eIz9eimf5ymayIWge-19" target="p_9eIz9eimf5ymayIWge-39">
          <mxGeometry relative="1" as="geometry" />
        </mxCell>
        <mxCell id="p_9eIz9eimf5ymayIWge-43" style="edgeStyle=orthogonalEdgeStyle;rounded=0;orthogonalLoop=1;jettySize=auto;html=1;exitX=0;exitY=1;exitDx=0;exitDy=0;entryX=0;entryY=0.5;entryDx=0;entryDy=0;" edge="1" parent="1" source="p_9eIz9eimf5ymayIWge-19" target="p_9eIz9eimf5ymayIWge-38">
          <mxGeometry relative="1" as="geometry" />
        </mxCell>
        <mxCell id="p_9eIz9eimf5ymayIWge-19" value="PERFIL DA EQUIPE GESTORA" style="rounded=0;whiteSpace=wrap;html=1;" vertex="1" parent="1">
          <mxGeometry x="740" y="320" width="120" height="60" as="geometry" />
        </mxCell>
        <mxCell id="p_9eIz9eimf5ymayIWge-29" style="edgeStyle=orthogonalEdgeStyle;rounded=0;orthogonalLoop=1;jettySize=auto;html=1;exitX=0;exitY=1;exitDx=0;exitDy=0;entryX=0;entryY=0.5;entryDx=0;entryDy=0;" edge="1" parent="1" source="p_9eIz9eimf5ymayIWge-20" target="p_9eIz9eimf5ymayIWge-28">
          <mxGeometry relative="1" as="geometry" />
        </mxCell>
        <mxCell id="p_9eIz9eimf5ymayIWge-30" style="edgeStyle=orthogonalEdgeStyle;rounded=0;orthogonalLoop=1;jettySize=auto;html=1;exitX=0;exitY=1;exitDx=0;exitDy=0;entryX=0;entryY=0.5;entryDx=0;entryDy=0;" edge="1" parent="1" source="p_9eIz9eimf5ymayIWge-20" target="p_9eIz9eimf5ymayIWge-27">
          <mxGeometry relative="1" as="geometry" />
        </mxCell>
        <mxCell id="p_9eIz9eimf5ymayIWge-31" style="edgeStyle=orthogonalEdgeStyle;rounded=0;orthogonalLoop=1;jettySize=auto;html=1;exitX=0;exitY=1;exitDx=0;exitDy=0;entryX=0;entryY=0.5;entryDx=0;entryDy=0;" edge="1" parent="1" source="p_9eIz9eimf5ymayIWge-20" target="p_9eIz9eimf5ymayIWge-26">
          <mxGeometry relative="1" as="geometry" />
        </mxCell>
        <mxCell id="p_9eIz9eimf5ymayIWge-20" value="ANÁLISE DE RISCOS" style="rounded=0;whiteSpace=wrap;html=1;" vertex="1" parent="1">
          <mxGeometry x="80" y="320" width="120" height="60" as="geometry" />
        </mxCell>
        <mxCell id="p_9eIz9eimf5ymayIWge-26" value="Riscos Econômicos" style="rounded=1;whiteSpace=wrap;html=1;" vertex="1" parent="1">
          <mxGeometry x="100" y="400" width="120" height="60" as="geometry" />
        </mxCell>
        <mxCell id="p_9eIz9eimf5ymayIWge-27" value="Riscos de Mercado" style="rounded=1;whiteSpace=wrap;html=1;" vertex="1" parent="1">
          <mxGeometry x="100" y="480" width="120" height="60" as="geometry" />
        </mxCell>
        <mxCell id="p_9eIz9eimf5ymayIWge-28" value="Estratégias de Mitigação" style="rounded=1;whiteSpace=wrap;html=1;" vertex="1" parent="1">
          <mxGeometry x="100" y="560" width="120" height="60" as="geometry" />
        </mxCell>
        <mxCell id="p_9eIz9eimf5ymayIWge-32" value="Projeções de Receita e Lucro" style="rounded=1;whiteSpace=wrap;html=1;" vertex="1" parent="1">
          <mxGeometry x="430" y="400" width="120" height="60" as="geometry" />
        </mxCell>
        <mxCell id="p_9eIz9eimf5ymayIWge-33" value="Custo Inicial e Manutenção" style="rounded=1;whiteSpace=wrap;html=1;" vertex="1" parent="1">
          <mxGeometry x="430" y="480" width="120" height="60" as="geometry" />
        </mxCell>
        <mxCell id="p_9eIz9eimf5ymayIWge-34" value="Ponto de Equilíbrio" style="rounded=1;whiteSpace=wrap;html=1;" vertex="1" parent="1">
          <mxGeometry x="430" y="560" width="120" height="60" as="geometry" />
        </mxCell>
        <mxCell id="p_9eIz9eimf5ymayIWge-35" value="ROI (Retorno sobre o Investimento)" style="rounded=1;whiteSpace=wrap;html=1;" vertex="1" parent="1">
          <mxGeometry x="600" y="400" width="120" height="60" as="geometry" />
        </mxCell>
        <mxCell id="p_9eIz9eimf5ymayIWge-36" value="Payback (Tempo de Retorno)" style="rounded=1;whiteSpace=wrap;html=1;" vertex="1" parent="1">
          <mxGeometry x="600" y="480" width="120" height="60" as="geometry" />
        </mxCell>
        <mxCell id="p_9eIz9eimf5ymayIWge-37" value="Margem de Lucro Esperada" style="rounded=1;whiteSpace=wrap;html=1;" vertex="1" parent="1">
          <mxGeometry x="600" y="560" width="120" height="60" as="geometry" />
        </mxCell>
        <mxCell id="p_9eIz9eimf5ymayIWge-38" value="Experiência e Habilidades" style="rounded=1;whiteSpace=wrap;html=1;" vertex="1" parent="1">
          <mxGeometry x="760" y="400" width="120" height="60" as="geometry" />
        </mxCell>
        <mxCell id="p_9eIz9eimf5ymayIWge-39" value="Histórico de Empreendimentos" style="rounded=1;whiteSpace=wrap;html=1;" vertex="1" parent="1">
          <mxGeometry x="760" y="480" width="120" height="60" as="geometry" />
        </mxCell>
        <mxCell id="p_9eIz9eimf5ymayIWge-40" value="&lt;div&gt;Capacidade de Execução&lt;/div&gt;" style="rounded=1;whiteSpace=wrap;html=1;" vertex="1" parent="1">
          <mxGeometry x="760" y="560" width="120" height="60" as="geometry" />
        </mxCell>
        <mxCell id="p_9eIz9eimf5ymayIWge-54" value="Fluxo de Caixa" style="rounded=1;whiteSpace=wrap;html=1;" vertex="1" parent="1">
          <mxGeometry x="430" y="640" width="120" height="60" as="geometry" />
        </mxCell>
      </root>
    </mxGraphModel>
  </diagram>
</mxfile>
